<?xml version="1.0" encoding="UTF-8" standalone="no"?>
<!-- Created with Inkscape (http://www.inkscape.org/) -->

<svg
   xmlns:dc="http://purl.org/dc/elements/1.1/"
   xmlns:cc="http://creativecommons.org/ns#"
   xmlns:rdf="http://www.w3.org/1999/02/22-rdf-syntax-ns#"
   xmlns:svg="http://www.w3.org/2000/svg"
   xmlns="http://www.w3.org/2000/svg"
   xmlns:sodipodi="http://sodipodi.sourceforge.net/DTD/sodipodi-0.dtd"
   xmlns:inkscape="http://www.inkscape.org/namespaces/inkscape"
   width="43.122219mm"
   height="46.814331mm"
   viewBox="0 0 152.79526 165.87755"
   id="svg4148"
   version="1.1"
   inkscape:version="0.91 r13725"
   sodipodi:docname="favicon_color.svg">
  <defs
     id="defs4150" />
  <sodipodi:namedview
     id="base"
     pagecolor="#ffffff"
     bordercolor="#666666"
     borderopacity="1.0"
     inkscape:pageopacity="0.0"
     inkscape:pageshadow="2"
     inkscape:zoom="0.35"
     inkscape:cx="1685.6833"
     inkscape:cy="-654.20408"
     inkscape:document-units="px"
     inkscape:current-layer="layer1"
     showgrid="false"
     fit-margin-top="0"
     fit-margin-left="0"
     fit-margin-right="0"
     fit-margin-bottom="0"
     inkscape:window-width="1920"
     inkscape:window-height="1017"
     inkscape:window-x="-8"
     inkscape:window-y="-8"
     inkscape:window-maximized="1" />
  <metadata
     id="metadata4153">
    <rdf:RDF>
      <cc:Work
         rdf:about="">
        <dc:format>image/svg+xml</dc:format>
        <dc:type
           rdf:resource="http://purl.org/dc/dcmitype/StillImage" />
        <dc:title></dc:title>
      </cc:Work>
    </rdf:RDF>
  </metadata>
  <g
     inkscape:label="Capa 1"
     inkscape:groupmode="layer"
     id="layer1"
     transform="translate(1310.6833,287.71942)">
    <g
       id="g5730"
       transform="translate(-3044.4644,-934.16383)">
      <g
         transform="matrix(3.0176145,0,0,2.7672627,1169.8773,-190.09593)"
         id="text2999-17-3-4-1-9-5-1-3"
         style="font-style:normal;font-variant:normal;font-weight:normal;font-stretch:normal;font-size:80.09136963px;line-height:125%;font-family:Arial;-inkscape-font-specification:Arial;letter-spacing:0px;word-spacing:0px;fill:#000000;fill-opacity:1;stroke:none">
        <path
           d="m 186.87072,362.05521 0,-59.56988 15.52552,0 0,5.82696 -8.48624,0 0,47.91596 8.48624,0 0,5.82696 z"
           id="path3824-1-8-4-1-4-5-6-5"
           inkscape:connector-curvature="0"
           sodipodi:nodetypes="ccccccccc"
           style="fill:#000000;fill-opacity:1" />
      </g>
      <g
         transform="matrix(-2.976624,0,0,2.8053701,799.87735,-189.80413)"
         id="text2999-1-1-7-6-5-8-1-5-9"
         style="font-style:normal;font-variant:normal;font-weight:normal;font-stretch:normal;font-size:79.40569305px;line-height:125%;font-family:Arial;-inkscape-font-specification:Arial;letter-spacing:0px;word-spacing:0px;fill:#000000;fill-opacity:1;stroke:none">
        <path
           d="m -365.07769,357.21707 0,-59.12858 15.39261,0 0,5.77707 -8.41359,0 0,47.57443 8.41359,0 0,5.77708 z"
           id="path3844-5-4-0-2-8-7-7-9"
           inkscape:connector-curvature="0"
           sodipodi:nodetypes="ccccccccc"
           style="fill:#000000;fill-opacity:1" />
      </g>
      <path
         style="color:#000000;font-style:normal;font-variant:normal;font-weight:normal;font-stretch:normal;font-size:40px;line-height:125%;font-family:'Liberation Mono';-inkscape-font-specification:'Liberation Mono';text-indent:0;text-align:start;text-decoration:none;text-decoration-line:none;letter-spacing:0px;word-spacing:0px;text-transform:none;direction:ltr;block-progression:tb;writing-mode:lr-tb;baseline-shift:baseline;text-anchor:start;display:inline;overflow:visible;visibility:visible;fill:#d21313;fill-opacity:1;fill-rule:nonzero;stroke:none;stroke-width:4;marker:none;enable-background:accumulate"
         d="m 1820.9375,677.28125 0,2 0,25.25 0,0.0312 0,1.28125 c -0.7857,-0.93986 -1.6885,-1.84096 -2.9375,-2.5 -3.6335,-1.91689 -8.0301,-2.8124 -13.125,-2.8125 -8.3504,5e-5 -15.0539,3.18092 -19.3438,9.375 -4.2898,6.19408 -6.2812,15.12585 -6.2812,26.71875 0,11.46786 1.9265,20.27777 6.0938,26.375 4.1868,6.12577 10.9625,9.21875 19.5312,9.21875 5.1197,0 9.5294,-0.99819 13.1562,-3.125 1.5543,-0.91144 2.5923,-2.16196 3.4376,-3.46875 0.084,1.39763 0.1586,2.74961 0.375,3.5625 l 0.375,1.46875 1.5624,0 10.3438,0 2.2188,0 -0.2188,-2.21875 c -0.2158,-1.94019 -0.375,-6.45719 -0.375,-13.21875 l 0,-75.9375 0,-2 -2,0 -10.8125,0 -2,0 z m -13.125,35.28125 c 5.5437,9e-5 9.0859,1.66284 11.4063,5.03125 2.0615,2.9935 1.7187,8.98725 1.7187,17.71875 0,9.3202 0.2924,15.78023 -1.9063,19.09375 -2.456,3.70184 -5.9638,5.4375 -11.3437,5.4375 -4.8749,0 -7.8488,-1.61506 -9.9063,-5.125 -2.0672,-3.52607 -3.3124,-9.7344 -3.3124,-18.46875 0,-8.69181 1.2478,-14.90233 3.3437,-18.5 2.0804,-3.57155 5.0886,-5.18741 10,-5.1875 z"
         id="path4193-2-4-7-8"
         inkscape:connector-curvature="0"
         sodipodi:nodetypes="cccccccssssccccccccsccccccccscscscc" />
    </g>
  </g>
</svg>
